<svg id="visual" viewBox="0 0 1920 600" width="1920" height="600" xmlns="http://www.w3.org/2000/svg" xmlns:xlink="http://www.w3.org/1999/xlink" version="1.1"><path d="M0 495L45.7 495.7C91.3 496.3 182.7 497.7 274.2 496.2C365.7 494.7 457.3 490.3 548.8 492.7C640.3 495 731.7 504 823 504.3C914.3 504.7 1005.7 496.3 1097 494C1188.3 491.7 1279.7 495.3 1371.2 499.5C1462.7 503.7 1554.3 508.3 1645.8 509.3C1737.3 510.3 1828.7 507.7 1874.3 506.3L1920 505L1920 601L1874.3 601C1828.7 601 1737.3 601 1645.8 601C1554.3 601 1462.7 601 1371.2 601C1279.7 601 1188.3 601 1097 601C1005.7 601 914.3 601 823 601C731.7 601 640.3 601 548.8 601C457.3 601 365.7 601 274.2 601C182.7 601 91.3 601 45.7 601L0 601Z" fill="#edf877"></path><path d="M0 533L45.7 532.3C91.3 531.7 182.7 530.3 274.2 535.2C365.7 540 457.3 551 548.8 552.3C640.3 553.7 731.7 545.3 823 537.7C914.3 530 1005.7 523 1097 527.3C1188.3 531.7 1279.7 547.3 1371.2 551.7C1462.7 556 1554.3 549 1645.8 547.5C1737.3 546 1828.7 550 1874.3 552L1920 554L1920 601L1874.3 601C1828.7 601 1737.3 601 1645.8 601C1554.3 601 1462.7 601 1371.2 601C1279.7 601 1188.3 601 1097 601C1005.7 601 914.3 601 823 601C731.7 601 640.3 601 548.8 601C457.3 601 365.7 601 274.2 601C182.7 601 91.3 601 45.7 601L0 601Z" fill="#fbd439"></path></svg>