<svg id="visual" viewBox="0 0 500 500" width="500" height="500" xmlns="http://www.w3.org/2000/svg" xmlns:xlink="http://www.w3.org/1999/xlink" version="1.1"><g transform="translate(250 250)"><path d="M59.7 -103.4C77.8 -93 93 -77.8 103.4 -59.7C113.8 -41.7 119.4 -20.8 119.4 0C119.4 20.8 113.8 41.7 103.4 59.7C93 77.8 77.8 93 59.7 103.4C41.7 113.8 20.8 119.4 0 119.4C-20.8 119.4 -41.7 113.8 -59.7 103.4C-77.8 93 -93 77.8 -103.4 59.7C-113.8 41.7 -119.4 20.8 -119.4 0C-119.4 -20.8 -113.8 -41.7 -103.4 -59.7C-93 -77.8 -77.8 -93 -59.7 -103.4C-41.7 -113.8 -20.8 -119.4 0 -119.4C20.8 -119.4 41.7 -113.8 59.7 -103.4" fill="#FAB980"></path></g></svg>