<svg id="visual" viewBox="0 0 1250 100" width="1250" height="100" xmlns="http://www.w3.org/2000/svg" xmlns:xlink="http://www.w3.org/1999/xlink" version="1.1"><path d="M0 48L20.8 46.3C41.7 44.7 83.3 41.3 125 42C166.7 42.7 208.3 47.3 250 50.2C291.7 53 333.3 54 375 58C416.7 62 458.3 69 500 70.5C541.7 72 583.3 68 625 66.5C666.7 65 708.3 66 750 63.2C791.7 60.3 833.3 53.7 875 50.7C916.7 47.7 958.3 48.3 1000 50.8C1041.7 53.3 1083.3 57.7 1125 55.2C1166.7 52.7 1208.3 43.3 1229.2 38.7L1250 34L1250 101L1229.2 101C1208.3 101 1166.7 101 1125 101C1083.3 101 1041.7 101 1000 101C958.3 101 916.7 101 875 101C833.3 101 791.7 101 750 101C708.3 101 666.7 101 625 101C583.3 101 541.7 101 500 101C458.3 101 416.7 101 375 101C333.3 101 291.7 101 250 101C208.3 101 166.7 101 125 101C83.3 101 41.7 101 20.8 101L0 101Z" fill="#92CFEC" stroke-linecap="round" stroke-linejoin="miter"></path></svg>