<svg id="visual" viewBox="0 0 1920 250" width="1920" height="250" xmlns="http://www.w3.org/2000/svg" xmlns:xlink="http://www.w3.org/1999/xlink" version="1.1"><path d="M0 182L22.8 173.7C45.7 165.3 91.3 148.7 137 132.7C182.7 116.7 228.3 101.3 274 114.5C319.7 127.7 365.3 169.3 411.2 185C457 200.7 503 190.3 548.8 163.7C594.7 137 640.3 94 686 101.7C731.7 109.3 777.3 167.7 823 185.7C868.7 203.7 914.3 181.3 960 175.5C1005.7 169.7 1051.3 180.3 1097 165.7C1142.7 151 1188.3 111 1234 98.2C1279.7 85.3 1325.3 99.7 1371.2 114.5C1417 129.3 1463 144.7 1508.8 144.2C1554.7 143.7 1600.3 127.3 1646 129C1691.7 130.7 1737.3 150.3 1783 141.5C1828.7 132.7 1874.3 95.3 1897.2 76.7L1920 58L1920 251L1897.2 251C1874.3 251 1828.7 251 1783 251C1737.3 251 1691.7 251 1646 251C1600.3 251 1554.7 251 1508.8 251C1463 251 1417 251 1371.2 251C1325.3 251 1279.7 251 1234 251C1188.3 251 1142.7 251 1097 251C1051.3 251 1005.7 251 960 251C914.3 251 868.7 251 823 251C777.3 251 731.7 251 686 251C640.3 251 594.7 251 548.8 251C503 251 457 251 411.2 251C365.3 251 319.7 251 274 251C228.3 251 182.7 251 137 251C91.3 251 45.7 251 22.8 251L0 251Z" fill="#F6F2EF" stroke-linecap="round" stroke-linejoin="miter"></path></svg>