<svg id="visual" viewBox="0 0 1920 250" width="1920" height="250" xmlns="http://www.w3.org/2000/svg" xmlns:xlink="http://www.w3.org/1999/xlink" version="1.1"><path d="M0 179L22.8 168.2C45.7 157.3 91.3 135.7 137 124.3C182.7 113 228.3 112 274 126.5C319.7 141 365.3 171 411.2 180.7C457 190.3 503 179.7 548.8 166C594.7 152.3 640.3 135.7 686 131.2C731.7 126.7 777.3 134.3 823 148.7C868.7 163 914.3 184 960 176.2C1005.7 168.3 1051.3 131.7 1097 122.8C1142.7 114 1188.3 133 1234 142C1279.7 151 1325.3 150 1371.2 161C1417 172 1463 195 1508.8 203.3C1554.7 211.7 1600.3 205.3 1646 194.3C1691.7 183.3 1737.3 167.7 1783 152.5C1828.7 137.3 1874.3 122.7 1897.2 115.3L1920 108L1920 251L1897.2 251C1874.3 251 1828.7 251 1783 251C1737.3 251 1691.7 251 1646 251C1600.3 251 1554.7 251 1508.8 251C1463 251 1417 251 1371.2 251C1325.3 251 1279.7 251 1234 251C1188.3 251 1142.7 251 1097 251C1051.3 251 1005.7 251 960 251C914.3 251 868.7 251 823 251C777.3 251 731.7 251 686 251C640.3 251 594.7 251 548.8 251C503 251 457 251 411.2 251C365.3 251 319.7 251 274 251C228.3 251 182.7 251 137 251C91.3 251 45.7 251 22.8 251L0 251Z" fill="#FFF2CB" stroke-linecap="round" stroke-linejoin="miter"></path></svg>