<svg id="visual" viewBox="0 0 1250 100" width="1250" height="100" xmlns="http://www.w3.org/2000/svg" xmlns:xlink="http://www.w3.org/1999/xlink" version="1.1"><path d="M0 50L20.8 51.7C41.7 53.3 83.3 56.7 125 56C166.7 55.3 208.3 50.7 250 47.8C291.7 45 333.3 44 375 40C416.7 36 458.3 29 500 27.5C541.7 26 583.3 30 625 31.5C666.7 33 708.3 32 750 34.8C791.7 37.7 833.3 44.3 875 47.3C916.7 50.3 958.3 49.7 1000 47.2C1041.7 44.7 1083.3 40.3 1125 42.8C1166.7 45.3 1208.3 54.7 1229.2 59.3L1250 64L1250 0L1229.2 0C1208.3 0 1166.7 0 1125 0C1083.3 0 1041.7 0 1000 0C958.3 0 916.7 0 875 0C833.3 0 791.7 0 750 0C708.3 0 666.7 0 625 0C583.3 0 541.7 0 500 0C458.3 0 416.7 0 375 0C333.3 0 291.7 0 250 0C208.3 0 166.7 0 125 0C83.3 0 41.7 0 20.8 0L0 0Z" fill="#92CFEC" stroke-linecap="round" stroke-linejoin="miter"></path></svg>