<svg id="visual" viewBox="0 0 1920 1080" width="1920" height="1080" xmlns="http://www.w3.org/2000/svg" xmlns:xlink="http://www.w3.org/1999/xlink" version="1.1"><path d="M1123 1080L1117.2 1044C1111.3 1008 1099.7 936 1140.7 864C1181.7 792 1275.3 720 1328.8 648C1382.3 576 1395.7 504 1368.8 432C1342 360 1275 288 1234.8 216C1194.7 144 1181.3 72 1174.7 36L1168 0L1920 0L1920 36C1920 72 1920 144 1920 216C1920 288 1920 360 1920 432C1920 504 1920 576 1920 648C1920 720 1920 792 1920 864C1920 936 1920 1008 1920 1044L1920 1080Z" fill="#ffdbba" stroke-linecap="round" stroke-linejoin="miter"></path></svg>