<svg id="visual" viewBox="0 0 1920 250" width="1920" height="250" xmlns="http://www.w3.org/2000/svg" xmlns:xlink="http://www.w3.org/1999/xlink" version="1.1"><path d="M0 102L24.7 109.5C49.3 117 98.7 132 147.8 148.2C197 164.3 246 181.7 295.2 184.2C344.3 186.7 393.7 174.3 443 163C492.3 151.7 541.7 141.3 590.8 129.5C640 117.7 689 104.3 738.2 113.8C787.3 123.3 836.7 155.7 886 167.3C935.3 179 984.7 170 1034 158.7C1083.3 147.3 1132.7 133.7 1181.8 144C1231 154.3 1280 188.7 1329.2 199.2C1378.3 209.7 1427.7 196.3 1477 173.3C1526.3 150.3 1575.7 117.7 1624.8 117.8C1674 118 1723 151 1772.2 156.3C1821.3 161.7 1870.7 139.3 1895.3 128.2L1920 117L1920 251L1895.3 251C1870.7 251 1821.3 251 1772.2 251C1723 251 1674 251 1624.8 251C1575.7 251 1526.3 251 1477 251C1427.7 251 1378.3 251 1329.2 251C1280 251 1231 251 1181.8 251C1132.7 251 1083.3 251 1034 251C984.7 251 935.3 251 886 251C836.7 251 787.3 251 738.2 251C689 251 640 251 590.8 251C541.7 251 492.3 251 443 251C393.7 251 344.3 251 295.2 251C246 251 197 251 147.8 251C98.7 251 49.3 251 24.7 251L0 251Z" fill="#FBCC54" stroke-linecap="round" stroke-linejoin="miter"></path></svg>