<svg id="visual" viewBox="0 0 1980 250" width="1980" height="250" xmlns="http://www.w3.org/2000/svg" xmlns:xlink="http://www.w3.org/1999/xlink" version="1.1"><path d="M0 140L18.3 150.2C36.7 160.3 73.3 180.7 110 177C146.7 173.3 183.3 145.7 220 146.5C256.7 147.3 293.3 176.7 330 172.2C366.7 167.7 403.3 129.3 440 127.5C476.7 125.7 513.3 160.3 550 166C586.7 171.7 623.3 148.3 660 144C696.7 139.7 733.3 154.3 770 159.8C806.7 165.3 843.3 161.7 880 154.3C916.7 147 953.3 136 990 142.3C1026.7 148.7 1063.3 172.3 1100 175C1136.7 177.7 1173.3 159.3 1210 144C1246.7 128.7 1283.3 116.3 1320 121.3C1356.7 126.3 1393.3 148.7 1430 161.8C1466.7 175 1503.3 179 1540 172.2C1576.7 165.3 1613.3 147.7 1650 142.2C1686.7 136.7 1723.3 143.3 1760 152C1796.7 160.7 1833.3 171.3 1870 167.7C1906.7 164 1943.3 146 1961.7 137L1980 128L1980 251L1961.7 251C1943.3 251 1906.7 251 1870 251C1833.3 251 1796.7 251 1760 251C1723.3 251 1686.7 251 1650 251C1613.3 251 1576.7 251 1540 251C1503.3 251 1466.7 251 1430 251C1393.3 251 1356.7 251 1320 251C1283.3 251 1246.7 251 1210 251C1173.3 251 1136.7 251 1100 251C1063.3 251 1026.7 251 990 251C953.3 251 916.7 251 880 251C843.3 251 806.7 251 770 251C733.3 251 696.7 251 660 251C623.3 251 586.7 251 550 251C513.3 251 476.7 251 440 251C403.3 251 366.7 251 330 251C293.3 251 256.7 251 220 251C183.3 251 146.7 251 110 251C73.3 251 36.7 251 18.3 251L0 251Z" fill="#000000" stroke-linecap="round" stroke-linejoin="miter"></path></svg>