<svg id="visual" viewBox="0 0 210 1080" width="210" height="1080" xmlns="http://www.w3.org/2000/svg" xmlns:xlink="http://www.w3.org/1999/xlink" version="1.1"><path d="M86 1080L94.7 1057.5C103.3 1035 120.7 990 120.8 945C121 900 104 855 106.8 810C109.7 765 132.3 720 142 675C151.7 630 148.3 585 131.3 540C114.3 495 83.7 450 88.3 405C93 360 133 315 143.5 270C154 225 135 180 117.7 135C100.3 90 84.7 45 76.8 22.5L69 0L210 0L210 22.5C210 45 210 90 210 135C210 180 210 225 210 270C210 315 210 360 210 405C210 450 210 495 210 540C210 585 210 630 210 675C210 720 210 765 210 810C210 855 210 900 210 945C210 990 210 1035 210 1057.5L210 1080Z" fill="#D8CEC4" stroke-linecap="round" stroke-linejoin="miter"></path></svg>