<svg id="visual" viewBox="0 0 210 1080" width="210" height="1080" xmlns="http://www.w3.org/2000/svg" xmlns:xlink="http://www.w3.org/1999/xlink" version="1.1"><path d="M76 0L65.7 36C55.3 72 34.7 144 52.7 216C70.7 288 127.3 360 148.8 432C170.3 504 156.7 576 131.7 648C106.7 720 70.3 792 73.5 864C76.7 936 119.3 1008 140.7 1044L162 1080L0 1080L0 1044C0 1008 0 936 0 864C0 792 0 720 0 648C0 576 0 504 0 432C0 360 0 288 0 216C0 144 0 72 0 36L0 0Z" fill="#97CEE8" stroke-linecap="round" stroke-linejoin="miter"></path></svg>