<svg id="visual" viewBox="0 0 210 1080" width="210" height="1080" xmlns="http://www.w3.org/2000/svg" xmlns:xlink="http://www.w3.org/1999/xlink" version="1.1"><path d="M84 0L77.3 25.7C70.7 51.3 57.3 102.7 74.3 154.2C91.3 205.7 138.7 257.3 135.2 308.8C131.7 360.3 77.3 411.7 52.3 463C27.3 514.3 31.7 565.7 52.3 617C73 668.3 110 719.7 130.3 771.2C150.7 822.7 154.3 874.3 139.5 925.8C124.7 977.3 91.3 1028.7 74.7 1054.3L58 1080L0 1080L0 1054.3C0 1028.7 0 977.3 0 925.8C0 874.3 0 822.7 0 771.2C0 719.7 0 668.3 0 617C0 565.7 0 514.3 0 463C0 411.7 0 360.3 0 308.8C0 257.3 0 205.7 0 154.2C0 102.7 0 51.3 0 25.7L0 0Z" fill="#FAB4D9" stroke-linecap="round" stroke-linejoin="miter"></path></svg>