<svg id="visual" viewBox="0 0 1920 600" width="1920" height="600" xmlns="http://www.w3.org/2000/svg" xmlns:xlink="http://www.w3.org/1999/xlink" version="1.1"><path d="M0 437L40 439C80 441 160 445 240 452.2C320 459.3 400 469.7 480 478.8C560 488 640 496 720 489.8C800 483.7 880 463.3 960 465.2C1040 467 1120 491 1200 492.3C1280 493.7 1360 472.3 1440 466.8C1520 461.3 1600 471.7 1680 475.5C1760 479.3 1840 476.7 1880 475.3L1920 474L1920 601L1880 601C1840 601 1760 601 1680 601C1600 601 1520 601 1440 601C1360 601 1280 601 1200 601C1120 601 1040 601 960 601C880 601 800 601 720 601C640 601 560 601 480 601C400 601 320 601 240 601C160 601 80 601 40 601L0 601Z" fill="#ffffff" stroke-linecap="round" stroke-linejoin="miter"></path></svg>