<svg id="visual" viewBox="0 0 900 600" width="900" height="600" xmlns="http://www.w3.org/2000/svg" xmlns:xlink="http://www.w3.org/1999/xlink" version="1.1"><rect x="0" y="0" width="900" height="600" fill="#92CFEC"></rect><path d="M0 479L11.5 476.2C23 473.3 46 467.7 69 467.7C92 467.7 115 473.3 138.2 477.3C161.3 481.3 184.7 483.7 207.8 479.3C231 475 254 464 277 461C300 458 323 463 346 466.3C369 469.7 392 471.3 415.2 472.7C438.3 474 461.7 475 484.8 473.3C508 471.7 531 467.3 554 466.8C577 466.3 600 469.7 623 470.7C646 471.7 669 470.3 692.2 468.5C715.3 466.7 738.7 464.3 761.8 467.3C785 470.3 808 478.7 831 479.7C854 480.7 877 474.3 888.5 471.2L900 468L900 601L888.5 601C877 601 854 601 831 601C808 601 785 601 761.8 601C738.7 601 715.3 601 692.2 601C669 601 646 601 623 601C600 601 577 601 554 601C531 601 508 601 484.8 601C461.7 601 438.3 601 415.2 601C392 601 369 601 346 601C323 601 300 601 277 601C254 601 231 601 207.8 601C184.7 601 161.3 601 138.2 601C115 601 92 601 69 601C46 601 23 601 11.5 601L0 601Z" fill="#edf877"></path><path d="M0 515L11.5 513.7C23 512.3 46 509.7 69 510.5C92 511.3 115 515.7 138.2 519.7C161.3 523.7 184.7 527.3 207.8 529.3C231 531.3 254 531.7 277 527.5C300 523.3 323 514.7 346 514C369 513.3 392 520.7 415.2 523.3C438.3 526 461.7 524 484.8 524.2C508 524.3 531 526.7 554 524.3C577 522 600 515 623 510.8C646 506.7 669 505.3 692.2 507.7C715.3 510 738.7 516 761.8 520C785 524 808 526 831 527.7C854 529.3 877 530.7 888.5 531.3L900 532L900 601L888.5 601C877 601 854 601 831 601C808 601 785 601 761.8 601C738.7 601 715.3 601 692.2 601C669 601 646 601 623 601C600 601 577 601 554 601C531 601 508 601 484.8 601C461.7 601 438.3 601 415.2 601C392 601 369 601 346 601C323 601 300 601 277 601C254 601 231 601 207.8 601C184.7 601 161.3 601 138.2 601C115 601 92 601 69 601C46 601 23 601 11.5 601L0 601Z" fill="#fbd439"></path></svg>