<svg id="visual" viewBox="0 0 1920 600" width="1920" height="600" xmlns="http://www.w3.org/2000/svg" xmlns:xlink="http://www.w3.org/1999/xlink" version="1.1"><path d="M0 438L45.7 448.5C91.3 459 182.7 480 274.2 464.5C365.7 449 457.3 397 548.8 386C640.3 375 731.7 405 823 430C914.3 455 1005.7 475 1097 465.8C1188.3 456.7 1279.7 418.3 1371.2 412C1462.7 405.7 1554.3 431.3 1645.8 434C1737.3 436.7 1828.7 416.3 1874.3 406.2L1920 396L1920 601L1874.3 601C1828.7 601 1737.3 601 1645.8 601C1554.3 601 1462.7 601 1371.2 601C1279.7 601 1188.3 601 1097 601C1005.7 601 914.3 601 823 601C731.7 601 640.3 601 548.8 601C457.3 601 365.7 601 274.2 601C182.7 601 91.3 601 45.7 601L0 601Z" fill="#fbcc54"></path><path d="M0 424L45.7 448.5C91.3 473 182.7 522 274.2 527.3C365.7 532.7 457.3 494.3 548.8 471C640.3 447.7 731.7 439.3 823 458C914.3 476.7 1005.7 522.3 1097 523.8C1188.3 525.3 1279.7 482.7 1371.2 483.8C1462.7 485 1554.3 530 1645.8 551.5C1737.3 573 1828.7 571 1874.3 570L1920 569L1920 601L1874.3 601C1828.7 601 1737.3 601 1645.8 601C1554.3 601 1462.7 601 1371.2 601C1279.7 601 1188.3 601 1097 601C1005.7 601 914.3 601 823 601C731.7 601 640.3 601 548.8 601C457.3 601 365.7 601 274.2 601C182.7 601 91.3 601 45.7 601L0 601Z" fill="#fff2cb"></path></svg>