<svg id="visual" viewBox="0 0 1920 250" width="1920" height="250" xmlns="http://www.w3.org/2000/svg" xmlns:xlink="http://www.w3.org/1999/xlink" version="1.1"><path d="M0 134L22.8 125.2C45.7 116.3 91.3 98.7 137 84.8C182.7 71 228.3 61 274 56C319.7 51 365.3 51 411.2 71.3C457 91.7 503 132.3 548.8 154.5C594.7 176.7 640.3 180.3 686 164.2C731.7 148 777.3 112 823 97.7C868.7 83.3 914.3 90.7 960 106C1005.7 121.3 1051.3 144.7 1097 150.2C1142.7 155.7 1188.3 143.3 1234 127C1279.7 110.7 1325.3 90.3 1371.2 80.2C1417 70 1463 70 1508.8 87.2C1554.7 104.3 1600.3 138.7 1646 149.5C1691.7 160.3 1737.3 147.7 1783 135.8C1828.7 124 1874.3 113 1897.2 107.5L1920 102L1920 251L1897.2 251C1874.3 251 1828.7 251 1783 251C1737.3 251 1691.7 251 1646 251C1600.3 251 1554.7 251 1508.8 251C1463 251 1417 251 1371.2 251C1325.3 251 1279.7 251 1234 251C1188.3 251 1142.7 251 1097 251C1051.3 251 1005.7 251 960 251C914.3 251 868.7 251 823 251C777.3 251 731.7 251 686 251C640.3 251 594.7 251 548.8 251C503 251 457 251 411.2 251C365.3 251 319.7 251 274 251C228.3 251 182.7 251 137 251C91.3 251 45.7 251 22.8 251L0 251Z" fill="#FFFFFF" stroke-linecap="round" stroke-linejoin="miter"></path></svg>